<?xml version="1.0" encoding="UTF-8"?>
<svg xmlns="http://www.w3.org/2000/svg" version="1.1" width="100" height="100" viewBox="0 0 100 100"><rect x="0" y="0" width="100" height="100" fill="#ffffff"/><g transform="scale(4.762)"><g transform="translate(0,0)"><path fill-rule="evenodd" d="M9 0L9 1L8 1L8 3L9 3L9 4L8 4L8 8L6 8L6 9L7 9L7 10L6 10L6 11L5 11L5 10L2 10L2 11L4 11L4 12L3 12L3 13L8 13L8 15L9 15L9 17L8 17L8 18L9 18L9 19L8 19L8 21L12 21L12 20L13 20L13 21L18 21L18 20L17 20L17 18L18 18L18 19L19 19L19 18L20 18L20 19L21 19L21 17L19 17L19 18L18 18L18 17L17 17L17 14L15 14L15 13L18 13L18 11L19 11L19 10L18 10L18 11L17 11L17 12L16 12L16 11L15 11L15 10L17 10L17 8L14 8L14 9L13 9L13 10L12 10L12 9L11 9L11 8L13 8L13 4L12 4L12 3L13 3L13 2L12 2L12 1L13 1L13 0L11 0L11 2L12 2L12 3L11 3L11 4L12 4L12 5L11 5L11 6L10 6L10 7L9 7L9 4L10 4L10 0ZM11 6L11 7L12 7L12 6ZM0 8L0 9L2 9L2 8ZM3 8L3 9L4 9L4 8ZM8 8L8 9L9 9L9 8ZM18 8L18 9L20 9L20 11L21 11L21 9L20 9L20 8ZM14 9L14 10L15 10L15 9ZM7 10L7 11L6 11L6 12L7 12L7 11L8 11L8 13L9 13L9 15L10 15L10 16L11 16L11 18L10 18L10 20L11 20L11 19L12 19L12 16L15 16L15 14L14 14L14 11L12 11L12 10ZM0 11L0 12L1 12L1 13L2 13L2 12L1 12L1 11ZM9 11L9 13L10 13L10 14L11 14L11 16L12 16L12 15L14 15L14 14L13 14L13 12L12 12L12 11ZM10 12L10 13L11 13L11 14L12 14L12 12ZM20 12L20 13L19 13L19 14L18 14L18 15L20 15L20 13L21 13L21 12ZM13 17L13 20L16 20L16 19L14 19L14 17ZM19 20L19 21L20 21L20 20ZM0 0L0 7L7 7L7 0ZM1 1L1 6L6 6L6 1ZM2 2L2 5L5 5L5 2ZM14 0L14 7L21 7L21 0ZM15 1L15 6L20 6L20 1ZM16 2L16 5L19 5L19 2ZM0 14L0 21L7 21L7 14ZM1 15L1 20L6 20L6 15ZM2 16L2 19L5 19L5 16Z" fill="#000000"/></g></g></svg>
